<svg xmlns="http://www.w3.org/2000/svg" viewBox="0 0 64 64"><defs><clipPath id="a"><circle cx="32" cy="32" r="32"/></clipPath></defs><g clip-path="url(#a)"><path fill="#90a9ca" d="M0 0h64v64H0z"/><path fill="#413850" d="M14 19c1-20 35-18 36 2l-2 32H13"/><path fill="#5c537e" d="M6 64c1-16 10-22 26-22s25 6 26 22"/><path fill="#a97558" d="M25 38h14v13H25"/><ellipse cx="32" cy="28" rx="14" ry="19" fill="#c58f6b"/><path fill="#413850" d="M17 28V16l13-10 16 10v17l-6-13c-6-1-10-3-13-7l-7 17"/><path fill="none" stroke="#4c332c" stroke-width="2" stroke-linecap="round" d="M24 29h3m10 0h3"/><path fill="none" stroke="#8b4845" stroke-width="2" stroke-linecap="round" d="M28 39q4 3 8 0"/><path fill="#dce7ef" d="m22 48 10 7 10-7-4 16H26"/><circle cx="18" cy="34" r="2" fill="#dce7ef"/><circle cx="46" cy="34" r="2" fill="#dce7ef"/></g></svg>
