<svg xmlns="http://www.w3.org/2000/svg" viewBox="0 0 64 64"><defs><clipPath id="a"><circle cx="32" cy="32" r="32"/></clipPath></defs><g clip-path="url(#a)"><path fill="#79aaa5" d="M0 0h64v64H0z"/><path fill="#215e59" d="M6 64c0-15 10-22 26-22s26 7 26 22"/><path fill="#ad7759" d="M25 38h14v14H25"/><ellipse cx="32" cy="28" rx="15" ry="19" fill="#ce9672"/><path fill="#292f32" d="m16 25 1-10 3-7 6 1 6-5 7 4 7 1 3 10-2 9-6-13-20 3-2 11"/><g fill="none" stroke="#263b40" stroke-width="2"><rect x="20" y="24" width="10" height="8" rx="3"/><rect x="34" y="24" width="10" height="8" rx="3"/><path d="M30 27h4"/></g><path fill="none" stroke="#5d3c33" stroke-width="2" stroke-linecap="round" d="M28 39q4 3 8 0"/><path fill="#e2e9e3" d="m24 48 8 6 8-6-3 16H27"/></g></svg>
