<svg xmlns="http://www.w3.org/2000/svg" viewBox="0 0 64 64"><defs><clipPath id="a"><circle cx="32" cy="32" r="32"/></clipPath></defs><g clip-path="url(#a)"><path fill="#bb899d" d="M0 0h64v64H0z"/><path fill="#3b2934" d="M14 23c-1-24 36-24 36 0l4 33H9"/><path fill="#993f64" d="M7 64c1-17 9-21 25-21s24 4 25 21"/><path fill="#dca07b" d="M25 38h14v14H25"/><ellipse cx="32" cy="27" rx="14" ry="18" fill="#f0bf99"/><path fill="#3b2934" d="M17 27V16c5-11 21-14 29 2-7 1-11-2-15-6-4 7-8 10-14 15"/><path stroke="#51352d" stroke-width="2" stroke-linecap="round" d="M24 29h3m10 0h3"/><path fill="none" stroke="#b45660" stroke-width="2" stroke-linecap="round" d="M28 38q4 3 8 0"/><circle cx="18" cy="34" r="2" fill="#f7d591"/><circle cx="46" cy="34" r="2" fill="#f7d591"/><path fill="none" stroke="#f7d591" stroke-width="2" d="M24 49q8 10 16 0"/></g></svg>
